name rise32.9588peak41.5061fall63.4684.mot
datacolumns 19
datarows 15
range 8.22663800000000 8.24997100000000
endheader
time	ground_force1_vx	ground_force1_vy	ground_force1_vz	ground_force1_px	ground_force1_py	ground_force1_pz	ground_force2_vx	ground_force2_vy	ground_force2_vz	ground_force2_px	ground_force2_py	ground_force2_pz	ground_torque1_x	ground_torque1_y	ground_torque1_z	ground_torque2_x	ground_torque2_y	ground_torque2_z	
8.22663800000000	60.97374000000000	814.13522899999998	48.10654400000000	0.29280900000000	0.00000000000000	0.08144600000000	0.00000000000000	0.00000000000000	0.00000000000000	0.00000000000000	0.00000000000000	0.00000000000000	0.00000000000000	18.86275100000000	0.00000000000000	0.00000000000000	0.00000000000000	0.00000000000000	
8.22830200000000	60.10989900000000	813.85437400000001	47.92966700000000	0.29131800000000	0.00000000000000	0.08139400000000	0.00000000000000	0.00000000000000	0.00000000000000	0.00000000000000	0.00000000000000	0.00000000000000	0.00000000000000	18.75825500000000	0.00000000000000	0.00000000000000	0.00000000000000	0.00000000000000	
8.22996700000000	59.25201400000000	813.43490399999996	47.74407300000000	0.28985500000000	0.00000000000000	0.08133900000000	0.00000000000000	0.00000000000000	0.00000000000000	0.00000000000000	0.00000000000000	0.00000000000000	0.00000000000000	18.65117100000000	0.00000000000000	0.00000000000000	0.00000000000000	0.00000000000000	
8.23163900000000	58.40106200000000	812.88049699999999	47.55016100000000	0.28842000000000	0.00000000000000	0.08128100000000	0.00000000000000	0.00000000000000	0.00000000000000	0.00000000000000	0.00000000000000	0.00000000000000	0.00000000000000	18.54172700000000	0.00000000000000	0.00000000000000	0.00000000000000	0.00000000000000	
8.23330000000000	57.55792600000000	812.19492900000000	47.34829000000000	0.28701300000000	0.00000000000000	0.08122200000000	0.00000000000000	0.00000000000000	0.00000000000000	0.00000000000000	0.00000000000000	0.00000000000000	0.00000000000000	18.43012400000000	0.00000000000000	0.00000000000000	0.00000000000000	0.00000000000000	
8.23497300000000	56.72340300000000	811.38208299999997	47.13878700000000	0.28563500000000	0.00000000000000	0.08115900000000	0.00000000000000	0.00000000000000	0.00000000000000	0.00000000000000	0.00000000000000	0.00000000000000	0.00000000000000	18.31653700000000	0.00000000000000	0.00000000000000	0.00000000000000	0.00000000000000	
8.23663400000000	55.89819900000000	810.44593999999995	46.92194700000000	0.28428700000000	0.00000000000000	0.08109400000000	0.00000000000000	0.00000000000000	0.00000000000000	0.00000000000000	0.00000000000000	0.00000000000000	0.00000000000000	18.20111900000000	0.00000000000000	0.00000000000000	0.00000000000000	0.00000000000000	
8.23830700000000	55.08293600000000	809.39058499999999	46.69803500000000	0.28296800000000	0.00000000000000	0.08102600000000	0.00000000000000	0.00000000000000	0.00000000000000	0.00000000000000	0.00000000000000	0.00000000000000	0.00000000000000	18.08400000000000	0.00000000000000	0.00000000000000	0.00000000000000	0.00000000000000	
8.23996700000000	54.27815200000000	808.22020299999997	46.46729000000000	0.28167900000000	0.00000000000000	0.08095600000000	0.00000000000000	0.00000000000000	0.00000000000000	0.00000000000000	0.00000000000000	0.00000000000000	0.00000000000000	17.96529000000000	0.00000000000000	0.00000000000000	0.00000000000000	0.00000000000000	
8.24163500000000	53.48430700000000	806.93908099999999	46.22992700000000	0.28041900000000	0.00000000000000	0.08088400000000	0.00000000000000	0.00000000000000	0.00000000000000	0.00000000000000	0.00000000000000	0.00000000000000	0.00000000000000	17.84507800000000	0.00000000000000	0.00000000000000	0.00000000000000	0.00000000000000	
8.24329900000000	52.70177900000000	805.55160200000000	45.98613900000000	0.27918900000000	0.00000000000000	0.08080800000000	0.00000000000000	0.00000000000000	0.00000000000000	0.00000000000000	0.00000000000000	0.00000000000000	0.00000000000000	17.72344000000000	0.00000000000000	0.00000000000000	0.00000000000000	0.00000000000000	
8.24496500000000	51.93087500000000	804.06224599999996	45.73610300000000	0.27798700000000	0.00000000000000	0.08073000000000	0.00000000000000	0.00000000000000	0.00000000000000	0.00000000000000	0.00000000000000	0.00000000000000	0.00000000000000	17.60043300000000	0.00000000000000	0.00000000000000	0.00000000000000	0.00000000000000	
8.24663400000000	51.17182800000000	802.47558500000002	45.47997900000000	0.27681400000000	0.00000000000000	0.08065000000000	0.00000000000000	0.00000000000000	0.00000000000000	0.00000000000000	0.00000000000000	0.00000000000000	0.00000000000000	17.47610200000000	0.00000000000000	0.00000000000000	0.00000000000000	0.00000000000000	
8.24829900000000	50.42480700000000	800.79627600000003	45.21791400000000	0.27566900000000	0.00000000000000	0.08056700000000	0.00000000000000	0.00000000000000	0.00000000000000	0.00000000000000	0.00000000000000	0.00000000000000	0.00000000000000	17.35048100000000	0.00000000000000	0.00000000000000	0.00000000000000	0.00000000000000	
8.24997100000000	49.68991400000000	799.02906199999995	44.95004800000000	0.27455100000000	0.00000000000000	0.08048200000000	0.00000000000000	0.00000000000000	0.00000000000000	0.00000000000000	0.00000000000000	0.00000000000000	0.00000000000000	17.22359200000000	0.00000000000000	0.00000000000000	0.00000000000000	0.00000000000000	
